<?xml version="1.0" encoding="utf-8"?>
<!-- Generated by IcoMoon.io -->
<!DOCTYPE svg PUBLIC "-//W3C//DTD SVG 1.1//EN" "http://www.w3.org/Graphics/SVG/1.1/DTD/svg11.dtd">
<svg version="1.1" xmlns="http://www.w3.org/2000/svg" xmlns:xlink="http://www.w3.org/1999/xlink" width="32" height="32" viewBox="0 0 32 32">
<g>
</g>
	<path d="M0.355 12.089c0-1.568 0.61-3.041 1.719-4.15 1.107-1.107 2.581-1.717 4.148-1.717s3.041 0.61 4.15 1.719l5.628 5.628 5.63-5.628c1.107-1.109 2.581-1.719 4.148-1.719s3.041 0.61 4.15 1.719c2.214 2.216 2.216 6.080-0.002 8.298l-13.926 13.926-13.926-13.928c-1.109-1.107-1.719-2.579-1.719-4.148zM27.734 12.089c0-0.524-0.203-1.013-0.571-1.383-0.372-0.37-0.862-0.573-1.385-0.573s-1.013 0.203-1.383 0.573l-8.396 8.394-8.396-8.394c-0.37-0.37-0.859-0.573-1.383-0.573s-1.013 0.203-1.383 0.573c-0.741 0.739-0.739 2.028-0.002 2.765l11.163 11.163 11.161-11.163c0.37-0.37 0.573-0.859 0.573-1.383z" fill="#000000" />
</svg>
